<svg width="100" height="108" viewBox="0 0 100 108" fill="none" xmlns="http://www.w3.org/2000/svg">
<g clip-path="url(#clip0)" filter="url(#filter0_d)">
<path d="M50.0001 100C49.5333 100 49.0633 99.8963 48.633 99.6828C28.8642 90.0577 12.5012 79.6699 12.5012 50.0016V15.6277C12.5012 14.3155 13.3221 13.1376 14.558 12.692L49.9999 10.5C50.6896 10.2436 50.6774 10.2436 51.3671 10.5L85.442 12.692C86.678 13.1376 87.4988 14.3155 87.4988 15.6277V50.0016C87.4988 79.6699 71.1359 90.0577 51.3671 99.6828C50.9369 99.8963 50.467 100 50.0001 100ZM18.7509 17.8189V50.0018C18.7509 73.3105 29.273 83.1062 49.9999 93.3904C70.7269 83.1062 81.249 73.3105 81.249 50.0018V17.8189L50.0001 15.6277L18.7509 17.8189Z" fill="white"/>
<g clip-path="url(#clip1)">
<path d="M71.8292 44.5542L67.7667 44.0208C67.4958 43.2042 67.1708 42.4125 66.7896 41.6521L69.275 38.4146C70.3917 36.9729 70.2562 34.9042 68.9583 33.6042L66.3979 31.0417C65.0979 29.7396 63.0292 29.6042 61.5875 30.7187L58.3479 33.2083C57.5875 32.8292 56.7958 32.5021 55.9812 32.2312L55.4437 28.1562C55.1854 26.3271 53.6604 25 51.8125 25H48.1875C46.3396 25 44.8146 26.3271 44.5562 28.1708L44.0187 32.2312C43.2042 32.5021 42.4125 32.8292 41.6521 33.2083L38.4146 30.7229C36.9708 29.6021 34.9021 29.7417 33.6042 31.0417L31.0417 33.6042C29.7417 34.9042 29.6062 36.9729 30.7187 38.4104L33.2083 41.6521C32.8292 42.4125 32.5042 43.2042 32.2333 44.0208L28.1583 44.5562C26.3292 44.8146 25 46.3417 25 48.1875V51.8125C25 53.6583 26.3292 55.1854 28.1708 55.4458L32.2312 55.9792C32.5021 56.7958 32.8271 57.5875 33.2083 58.3479L30.7229 61.5854C29.6062 63.0271 29.7417 65.0958 31.0396 66.3958L33.6021 68.9583C34.9042 70.2604 36.9708 70.3917 38.4125 69.2812L41.6542 66.7917C42.4146 67.1708 43.2062 67.4979 44.0208 67.7687L44.5583 71.8438C44.8146 73.6729 46.3396 75 48.1875 75H51.8125C53.6604 75 55.1854 73.6729 55.4437 71.8292L55.9812 67.7687C56.7958 67.4979 57.5875 67.1708 58.3479 66.7917L61.5854 69.2771C63.0354 70.4 65.1021 70.2562 66.3979 68.9583L68.9604 66.3958C70.2583 65.0958 70.3937 63.0292 69.2812 61.5896L66.7917 58.3479C67.1729 57.5875 67.4979 56.7958 67.7687 55.9792L71.8438 55.4437C73.6708 55.1854 75 53.6583 75 51.8125V48.1875C75 46.3417 73.6708 44.8146 71.8292 44.5542ZM49.2188 48.4375H50.7812C53.2229 48.4375 55.2083 50.4229 55.2083 52.8646C55.2083 55.0375 53.6312 56.8417 51.5625 57.2125V58.8542C51.5625 59.7167 50.8625 60.4167 50 60.4167C49.1375 60.4167 48.4375 59.7167 48.4375 58.8542V57.2917H46.3542C45.4917 57.2917 44.7917 56.5917 44.7917 55.7292C44.7917 54.8667 45.4917 54.1667 46.3542 54.1667H50.7812C51.5 54.1667 52.0833 53.5833 52.0833 52.8646C52.0833 52.1458 51.5 51.5625 50.7812 51.5625H49.2188C46.7771 51.5625 44.7917 49.5771 44.7917 47.1354C44.7917 44.9625 46.3687 43.1583 48.4375 42.7875V41.1458C48.4375 40.2833 49.1375 39.5833 50 39.5833C50.8625 39.5833 51.5625 40.2833 51.5625 41.1458V42.7083H53.6458C54.5083 42.7083 55.2083 43.4083 55.2083 44.2708C55.2083 45.1333 54.5083 45.8333 53.6458 45.8333H49.2188C48.5 45.8333 47.9167 46.4167 47.9167 47.1354C47.9167 47.8542 48.5 48.4375 49.2188 48.4375Z" fill="white"/>
<rect x="43" y="39" width="14" height="23" fill="white"/>
<g clip-path="url(#clip2)">
<path d="M63.7649 42.5622L50.5481 35.1479C50.1943 34.9494 49.7548 34.9494 49.4012 35.1479L36.1845 42.5622C35.8153 42.7694 35.5859 43.161 35.5859 43.5842C35.5859 44.0076 35.8153 44.3992 36.1845 44.6064L39.6033 46.5242V52.9885C39.6033 53.3792 39.7969 53.7424 40.1208 53.9605L40.8198 54.4311C40.6319 54.7575 40.5241 55.1351 40.5241 55.538V64.4131C40.5241 64.7367 40.7863 64.999 41.11 64.999H44.3912C44.7149 64.999 44.9772 64.7367 44.9772 64.4131V57.2299L49.3204 60.1538C49.5191 60.2877 49.7471 60.3545 49.9748 60.3545C50.2025 60.3545 50.4305 60.2877 50.6292 60.1538L59.8288 53.9605C60.1527 53.7424 60.3463 53.3789 60.3463 52.9885V46.5242L63.7651 44.6064C64.1343 44.3992 64.3636 44.0076 64.3636 43.5842C64.3636 43.161 64.1343 42.7694 63.7649 42.5622ZM40.7751 47.1817L42.1647 47.9611V53.3899C41.9907 53.4375 41.8252 53.5055 41.671 53.5913L40.7751 52.9885V47.1817ZM43.8053 56.126V56.1328V57.0809H41.6957V55.538C41.6957 54.9564 42.169 54.4831 42.7506 54.4831C43.3322 54.4831 43.8053 54.9564 43.8053 55.538V56.126ZM41.6957 63.8271V58.2527H43.8053V63.8271H41.6957ZM59.1742 52.9885L50.5607 58.7872V56.3581C50.5607 56.0346 50.2984 55.7721 49.9748 55.7721C49.6511 55.7721 49.3889 56.0346 49.3889 56.3581V58.7872L44.9772 55.8172V55.5377C44.9772 54.5128 44.2809 53.6479 43.3365 53.3899V48.6184L49.4014 52.0208C49.5781 52.1199 49.7763 52.1695 49.9748 52.1695C50.173 52.1695 50.3712 52.1199 50.5481 52.0208L59.1742 47.1817V52.9885ZM59.5342 45.6359C59.4937 45.6528 59.456 45.6746 59.4207 45.6997L49.9748 50.9986L43.9703 47.6304L48.4575 45.1062C48.8659 45.3994 49.3927 45.5766 49.9679 45.5766C51.2602 45.5766 52.3117 44.6828 52.3117 43.5844C52.3117 42.4858 51.2602 41.592 49.9679 41.592C48.6754 41.592 47.6239 42.4858 47.6239 43.5844C47.6239 43.7888 47.6606 43.9861 47.7281 44.172L42.7735 46.959L40.5289 45.6997C40.4936 45.6746 40.4556 45.653 40.4151 45.6361L36.7578 43.5844L49.9746 36.17L63.1915 43.5842L59.5342 45.6359ZM48.7958 43.5844C48.7958 43.1397 49.3325 42.7641 49.9679 42.7641C50.6031 42.7641 51.1398 43.1397 51.1398 43.5844C51.1398 44.0291 50.6031 44.4047 49.9679 44.4047C49.3325 44.4047 48.7958 44.0291 48.7958 43.5844Z" fill="#1B2845"/>
<path d="M49.9749 53.4297C49.8206 53.4297 49.6695 53.4918 49.5606 53.6007C49.4516 53.7104 49.3889 53.861 49.3889 54.015C49.3889 54.1697 49.4516 54.3203 49.5606 54.43C49.6695 54.5389 49.8206 54.6009 49.9749 54.6009C50.1289 54.6009 50.2802 54.5389 50.3891 54.43C50.4981 54.3203 50.5608 54.1697 50.5608 54.015C50.5608 53.861 50.4981 53.7099 50.3891 53.6007C50.2802 53.4918 50.1289 53.4297 49.9749 53.4297Z" fill="#1B2845"/>
</g>
</g>
</g>
<defs>
<filter id="filter0_d" x="-4" y="0" width="108" height="108" filterUnits="userSpaceOnUse" color-interpolation-filters="sRGB">
<feFlood flood-opacity="0" result="BackgroundImageFix"/>
<feColorMatrix in="SourceAlpha" type="matrix" values="0 0 0 0 0 0 0 0 0 0 0 0 0 0 0 0 0 0 127 0"/>
<feOffset dy="4"/>
<feGaussianBlur stdDeviation="2"/>
<feColorMatrix type="matrix" values="0 0 0 0 0 0 0 0 0 0 0 0 0 0 0 0 0 0 0.25 0"/>
<feBlend mode="normal" in2="BackgroundImageFix" result="effect1_dropShadow"/>
<feBlend mode="normal" in="SourceGraphic" in2="effect1_dropShadow" result="shape"/>
</filter>
<clipPath id="clip0">
<rect width="100" height="100" fill="white"/>
</clipPath>
<clipPath id="clip1">
<rect width="50" height="50" fill="white" transform="translate(25 25)"/>
</clipPath>
<clipPath id="clip2">
<rect width="30" height="30" fill="white" transform="translate(35 35)"/>
</clipPath>
</defs>
</svg>
